<svg>
    <defs>
        <svg id="edit" version="1.1" id="Capa_1" xmlns="http://www.w3.org/2000/svg"
            xmlns:xlink="http://www.w3.org/1999/xlink" x="0px" y="0px" width="528.899px" height="528.899px"
            viewBox="0 0 528.899 528.899" style="enable-background:new 0 0 528.899 528.899;" xml:space="preserve">
            <g>
                <path d="M328.883,89.125l107.59,107.589l-272.34,272.34L56.604,361.465L328.883,89.125z M518.113,63.177l-47.981-47.981
        		c-18.543-18.543-48.653-18.543-67.259,0l-45.961,45.961l107.59,107.59l53.611-53.611
        		C532.495,100.753,532.495,77.559,518.113,63.177z M0.3,512.69c-1.958,8.812,5.998,16.708,14.811,14.565l119.891-29.069
        		L27.473,390.597L0.3,512.69z" />
        </svg>
        <svg id="check" version="1.1" id="Capa_1" xmlns="http://www.w3.org/2000/svg"
            xmlns:xlink="http://www.w3.org/1999/xlink" x="0px" y="0px" viewBox="0 0 488.878 488.878"
            style="enable-background:new 0 0 488.878 488.878;" xml:space="preserve">
            <g>
                <g>
                    <polygon style="fill:#020202;" points="143.294,340.058 50.837,247.602 0,298.439 122.009,420.447 122.149,420.306 
			144.423,442.58 488.878,98.123 437.055,46.298 		" />
                </g>
        </svg>
        <svg id="save" version="1.1" id="Capa_1" xmlns="http://www.w3.org/2000/svg" xmlns:xlink="http://www.w3.org/1999/xlink" x="0px" y="0px"
	 width="442.533px" height="442.533px" viewBox="0 0 442.533 442.533" style="enable-background:new 0 0 442.533 442.533;"
	 xml:space="preserve">
<g>
	<path d="M434.539,98.499l-38.828-38.828c-5.324-5.328-11.799-7.993-19.41-7.993c-7.618,0-14.093,2.665-19.417,7.993L169.59,247.248
		l-83.939-84.225c-5.33-5.33-11.801-7.992-19.412-7.992c-7.616,0-14.087,2.662-19.417,7.992L7.994,201.852
		C2.664,207.181,0,213.654,0,221.269c0,7.609,2.664,14.088,7.994,19.416l103.351,103.349l38.831,38.828
		c5.327,5.332,11.8,7.994,19.414,7.994c7.611,0,14.084-2.669,19.414-7.994l38.83-38.828L434.539,137.33
		c5.325-5.33,7.994-11.802,7.994-19.417C442.537,110.302,439.864,103.829,434.539,98.499z"/>
</g>
</svg>
<svg id="check" xmlns="http://www.w3.org/2000/svg" width="24" height="24" viewBox="0 0 24 24"><path d="M20.285 2l-11.285 11.567-5.286-5.011-3.714 3.716 9 8.728 15-15.285z"/></svg>
<svg id="cancel" xmlns="http://www.w3.org/2000/svg" width="24" height="24" viewBox="0 0 24 24"><path d="M24 20.188l-8.315-8.209 8.2-8.282-3.697-3.697-8.212 8.318-8.31-8.203-3.666 3.666 8.321 8.24-8.206 8.313 3.666 3.666 8.237-8.318 8.285 8.203z"/></svg>
    </defs>

</svg>