<?xml version="1.0" encoding="UTF-8"?>
<svg xmlns="http://www.w3.org/2000/svg" xmlns:xlink="http://www.w3.org/1999/xlink" width="512" height="512" viewBox="0 0 56 56" version="1.1"><!-- Generator: Sketch 51.3 (57544) - http://www.bohemiancoding.com/sketch --><title>010 - Jigsaw</title><desc>Created with Sketch.</desc><defs/><g id="Page-1" stroke="none" stroke-width="1" fill-rule="evenodd"><g id="010---Jigsaw" fill-rule="nonzero"><path d="M12.243,42.383 C12.5581663,42.069392 12.7353564,41.6431119 12.7353564,41.1985 C12.7353564,40.7538881 12.5581663,40.327608 12.243,40.014 L12.216,39.994 C12.1526096,39.9241985 12.0578774,39.8917405 11.965,39.908 C9.0182626,40.3339279 6.17344455,38.6470726 5.13352335,35.8572268 C4.09360216,33.0673809 5.14017577,29.9300007 7.64673969,28.3231986 C10.1533036,26.7163964 13.441111,27.0752746 15.542,29.185 C16.9550319,30.5974776 17.6082922,32.5999919 17.3,34.574 C17.2898799,34.6283196 17.2998299,34.684466 17.328,34.732 L17.428,34.832 C18.0783749,35.4812282 19.1316251,35.4812282 19.782,34.832 L26.616,28 L19.783,21.167 C18.3522277,19.7351674 18.3522277,17.4148326 19.783,15.983 L19.883,15.883 C19.9991384,15.7665881 20.1298977,15.6657454 20.272,15.583 C20.4019097,15.4956686 20.5441495,15.4282563 20.694,15.383 C21.048567,15.2567189 21.4305569,15.2280524 21.8,15.3 C23.1388419,15.5025666 24.4940794,15.05503 25.449,14.095 C26.3889139,13.1494955 26.8426062,11.8247513 26.6796693,10.5015474 C26.5167324,9.17834358 25.7552131,8.00323835 24.614,7.314 C23.2565018,6.47934973 21.5470858,6.47048067 20.181,7.291 C18.6754316,8.18459517 17.8582706,9.89869809 18.112,11.631 C18.1684881,12.0253228 18.1255193,12.4275113 17.987,12.801 C17.8807787,13.0683969 17.7250544,13.3133489 17.528,13.523 C17.519,13.533 17.44,13.613 17.428,13.623 C17.3863911,13.6706232 17.3416232,13.7153911 17.294,13.757 C17.2401334,13.8091476 17.1833771,13.8582251 17.124,13.904 C16.984,14.009 16.909,14.065 16.824,14.115 C16.6264037,14.2508513 16.412359,14.3610658 16.187,14.443 C15.3070104,14.7904398 14.3271685,14.7865018 13.45,14.432 C13.3672884,14.4029878 13.2861744,14.3696076 13.207,14.332 L12.245,13.632 L7.577,8.952 C-2.50281704,19.6622286 -2.5264552,36.3612776 7.523,47.1 L12.243,42.383 Z" id="Shape"/><path d="M34.6,38.731 C34.6502206,38.7423417 34.7027457,38.7374394 34.75,38.717 L34.909,38.569 C35.2034732,38.261449 35.3657347,37.8507695 35.361,37.425 C35.3627964,36.9829946 35.1873893,36.5587037 34.874,36.247 L28.03,29.414 L21.2,36.247 C19.7679392,37.677221 17.4480608,37.677221 16.016,36.247 L15.916,36.147 C15.4372515,35.65491 15.21763,34.9664172 15.323,34.288 C15.5390058,32.9378045 15.0937597,31.5659853 14.126,30.6 C13.1935532,29.6580454 11.8794122,29.1977457 10.563,29.352 C9.22671301,29.5111644 8.03802524,30.2764536 7.34,31.427 C6.50620723,32.7820217 6.49656746,34.4886458 7.315,35.853 C8.21706994,37.3589983 9.93403778,38.177484 11.672,37.93 C12.3648893,37.8139683 13.0714111,38.0370804 13.572,38.53 L13.602,38.553 C15.059671,39.9858511 15.0833736,42.3279413 13.655,43.79 L8.933,48.513 C19.6742656,58.5226278 36.3386155,58.4837006 47.033,48.424 L42.333,43.724 C42.32,43.712 42.316,43.707 42.317,43.707 C42.2895762,43.6877619 42.2632049,43.6670655 42.238,43.645 C42.219,43.635 42.154,43.582 42.138,43.57 C41.4789676,43.135858 40.605143,43.2270906 40.05,43.788 L39.919,43.907 C39.9158931,43.9621284 39.9185744,44.0174307 39.927,44.072 C40.1956152,45.8892452 39.6601316,47.7334299 38.4600231,49.1242117 C37.2599147,50.5149934 35.5139905,51.3146864 33.677,51.315 C32.5156039,51.3175154 31.3766714,50.9950256 30.389,50.384 C30.217314,50.2786449 30.0532433,50.1613561 29.898,50.033 C29.4873668,49.7363341 29.1181145,49.3862506 28.8,48.992 L28.731,48.907 C28.6599379,48.8213787 28.5931884,48.7322682 28.531,48.64 C27.0579718,46.5786598 26.9606893,43.8361737 28.2839576,41.6756422 C29.6072259,39.5151107 32.0944127,38.3555436 34.6,38.731 Z" id="Shape"/><path d="M13.757,12.3 C13.7675323,12.3076729 13.7775536,12.316024 13.787,12.325 L13.832,12.358 C13.842,12.364 13.917,12.42 13.927,12.426 C14.0063708,12.480645 14.0919753,12.5256293 14.182,12.56 C14.5916936,12.7299928 15.0514497,12.7339377 15.464,12.571 C15.5532378,12.5392383 15.6382137,12.4965824 15.717,12.444 L15.838,12.358 L15.938,12.285 C15.9636783,12.2552912 15.9925149,12.2284665 16.024,12.205 C15.9944219,12.2259426 15.9669584,12.249722 15.942,12.276 C15.951,12.266 16.004,12.209 16.014,12.2 C16.0572483,12.1627284 16.093485,12.1180251 16.121,12.068 C16.1367647,12.0123927 16.1398404,11.9539549 16.13,11.897 C15.7791217,9.47541559 16.8596335,7.0692466 18.9026432,5.72265907 C20.9456529,4.37607154 23.5829229,4.33177808 25.67,5.609 C27.3287899,6.62111094 28.4322407,8.33762054 28.6643074,10.2668943 C28.8963741,12.1961681 28.2314575,14.1253895 26.86,15.502 C25.4482326,16.9151726 23.4472017,17.5704201 21.473,17.266 C21.4293491,17.2557168 21.3835843,17.2592103 21.342,17.276 L21.2,17.4 C20.5493253,18.0509474 20.5493253,19.1060526 21.2,19.757 L28.033,26.59 L34.866,19.757 C36.3060551,18.3395683 38.6169449,18.3395683 40.057,19.757 L40.174,19.874 C40.6492408,20.3727108 40.8593179,21.0675241 40.74,21.746 C40.6052213,22.6993312 40.7834844,23.6706549 41.248,24.514 C41.3616328,24.7155346 41.4956698,24.9048618 41.648,25.079 C41.7192825,25.174296 41.7974945,25.2642064 41.882,25.348 C41.959,25.425 42.037,25.495 42.113,25.563 L42.256,25.693 C43.22962,26.4946178 44.5040092,26.8326124 45.7469249,26.6188663 C46.9898406,26.4051201 48.0781052,25.6608162 48.728,24.58 C49.5604972,23.2244106 49.5693638,21.5181682 48.751,20.154 C48.6982675,20.0598431 48.6373668,19.9704998 48.569,19.887 C48.42,19.687 48.303,19.541 48.187,19.408 C48.1359535,19.3507906 48.0815225,19.2966935 48.024,19.246 C47.996,19.221 47.97,19.195 47.945,19.169 C47.8818066,19.1196362 47.8247357,19.062901 47.775,19 C46.8265567,18.2401885 45.6060956,17.90648 44.403,18.078 C43.7048966,18.1949304 42.993068,17.9699271 42.489,17.473 C42.484,17.467 42.418,17.403 42.412,17.397 C40.9998099,15.9579135 40.9998099,13.6530865 42.412,12.214 L46.986,7.63 C36.3070646,-2.35780634 19.7256201,-2.39665615 9,7.541 L13.657,12.2 L13.757,12.3 Z" id="Shape"/><path d="M43.827,13.617 C43.5118337,13.930608 43.3346436,14.3568881 43.3346436,14.8015 C43.3346436,15.2461119 43.5118337,15.672392 43.827,15.986 C43.8941894,16.0676959 43.9994363,16.1079709 44.104,16.092 C45.8768255,15.8385218 47.6744926,16.3426526 49.057,17.481 C49.1137055,17.5236661 49.1671842,17.5704599 49.217,17.621 C49.2806828,17.6732924 49.340196,17.7304653 49.395,17.792 C49.4935499,17.8817303 49.5870279,17.9768775 49.675,18.077 C49.8418966,18.2639881 49.9984628,18.4599462 50.144,18.664 C50.2637805,18.8106168 50.3708353,18.9671844 50.464,19.132 C51.5235602,20.9366176 51.6237129,23.1480183 50.7316154,25.041025 C49.839518,26.9340318 48.0702495,28.2644499 46.004,28.596 C44.1858442,28.8849288 42.3318257,28.3700656 40.923,27.185 L40.767,27.043 C40.667,26.951 40.559,26.856 40.459,26.755 C40.3169338,26.6164629 40.1855584,26.4673703 40.066,26.309 C39.8400535,26.0449371 39.6432486,25.7572734 39.479,25.451 C38.8088296,24.2258217 38.555743,22.8157678 38.758,21.434 C38.7741191,21.3718822 38.7624406,21.3058254 38.726,21.253 L38.643,21.17 C38.3294065,20.853663 37.9024324,20.6757143 37.457,20.6757143 C37.0115676,20.6757143 36.5845935,20.853663 36.271,21.17 L29.444,28 L36.217,34.773 C36.9344585,35.4520406 37.3466888,36.3924518 37.359874,37.3802114 C37.3730592,38.3679711 36.9860777,39.3190506 36.287,40.017 L36.142,40.151 C35.6497869,40.6223512 34.9615952,40.8294407 34.291,40.708 C32.5729743,40.4517115 30.869009,41.2518024 29.9688936,42.7374297 C29.0687783,44.223057 29.1484575,46.1038266 30.171,47.508 C30.2016164,47.5555892 30.2350075,47.601335 30.271,47.645 L30.353,47.745 C30.5778962,48.0149662 30.8374757,48.254035 31.125,48.456 C31.228097,48.5410266 31.3366637,48.6191946 31.45,48.69 C32.8090466,49.5261101 34.5206222,49.5357495 35.889,48.715 C37.3939753,47.820937 38.210643,46.1070406 37.957,44.375 C37.8365855,43.6757507 38.0598625,42.9612643 38.557,42.455 L38.684,42.339 C39.9123712,41.1368884 41.8138178,40.9568304 43.246,41.907 C43.3358418,41.9612286 43.4208251,42.023126 43.5,42.092 C43.5889191,42.1579815 43.6722053,42.2312332 43.749,42.311 L48.449,47.011 C58.3856228,36.2983562 58.364241,19.7309598 48.4,9.044 L43.827,13.617 Z" id="Shape"/></g></g></svg>
