<svg>
	<defs>
		<svg id="description" version="1.1" id="Capa_1" xmlns="http://www.w3.org/2000/svg"
			xmlns:xlink="http://www.w3.org/1999/xlink" x="0px" y="0px" viewBox="0 0 512 512"
			style="enable-background:new 0 0 512 512;" xml:space="preserve">
			<g>
				<g>
					<path d="M346,319c-5.522,0-10,4.477-10,10v69c0,27.57-22.43,50-50,50H178.032c-5.521,0-9.996,4.473-10,9.993l-0.014,19.882
			l-23.868-23.867c-1.545-3.547-5.081-6.008-9.171-6.008H70c-27.57,0-50-22.43-50-50V244c0-27.57,22.43-50,50-50h101
			c5.522,0,10-4.477,10-10s-4.478-10-10-10H70c-38.598,0-70,31.402-70,70v154c0,38.598,31.402,70,70,70h59.858l41.071,41.071
			c1.913,1.913,4.47,2.929,7.073,2.929c1.287,0,2.586-0.249,3.821-0.76c3.737-1.546,6.174-5.19,6.177-9.233L188.024,468H286
			c38.598,0,70-31.402,70-70v-69C356,323.477,351.522,319,346,319z" />
				</g>
			</g>
			<g>
				<g>
					<path d="M366.655,0h-25.309C261.202,0,196,65.202,196,145.346s65.202,145.345,145.345,145.345h25.309
			c12.509,0,24.89-1.589,36.89-4.729l37.387,37.366c1.913,1.911,4.469,2.927,7.071,2.927c1.289,0,2.589-0.249,3.826-0.762
			c3.736-1.548,6.172-5.194,6.172-9.238v-57.856c15.829-12.819,28.978-29.012,38.206-47.102
			C506.687,190.751,512,168.562,512,145.346C512,65.202,446.798,0,366.655,0z M441.983,245.535
			c-2.507,1.889-3.983,4.847-3.983,7.988v38.6l-24.471-24.458c-1.904-1.902-4.458-2.927-7.07-2.927c-0.98,0-1.97,0.145-2.936,0.442
			c-11.903,3.658-24.307,5.512-36.868,5.512h-25.309c-69.117,0-125.346-56.23-125.346-125.346S272.23,20,341.346,20h25.309
			C435.771,20,492,76.23,492,145.346C492,185.077,473.77,221.595,441.983,245.535z" />
				</g>
			</g>
			<g>
				<g>
					<path d="M399.033,109.421c-1.443-20.935-18.319-37.811-39.255-39.254c-11.868-0.815-23.194,3.188-31.863,11.281
			c-8.55,7.981-13.453,19.263-13.453,30.954c0,5.523,4.478,10,10,10c5.522,0,10-4.477,10-10c0-6.259,2.522-12.06,7.1-16.333
			c4.574-4.269,10.552-6.382,16.842-5.948c11.028,0.76,19.917,9.649,20.677,20.676c0.768,11.137-6.539,20.979-17.373,23.403
			c-8.778,1.964-14.908,9.592-14.908,18.549v24.025c0,5.523,4.478,10,10,10c5.523,0,10-4.477,9.999-10v-23.226
			C386.949,148.68,400.468,130.242,399.033,109.421z" />
				</g>
			</g>
			<g>
				<g>
					<path d="M363.87,209.26c-1.86-1.86-4.44-2.93-7.07-2.93s-5.21,1.07-7.07,2.93c-1.86,1.86-2.93,4.44-2.93,7.07
			c0,2.64,1.071,5.22,2.93,7.08c1.86,1.86,4.44,2.92,7.07,2.92s5.21-1.06,7.07-2.92c1.86-1.87,2.93-4.44,2.93-7.08
			C366.8,213.7,365.729,211.12,363.87,209.26z" />
				</g>
			</g>
			<g>
				<g>
					<path
						d="M275,310H64c-5.522,0-10,4.477-10,10s4.478,10,10,10h211c5.523,0,10-4.477,10-10S280.522,310,275,310z" />
				</g>
			</g>
			<g>
				<g>
					<path d="M282.069,368.93C280.21,367.07,277.63,366,275,366s-5.21,1.07-7.07,2.93c-1.861,1.86-2.93,4.44-2.93,7.07
			s1.07,5.21,2.93,7.07c1.86,1.86,4.44,2.93,7.07,2.93s5.21-1.07,7.069-2.93c1.861-1.86,2.931-4.43,2.931-7.07
			C285,373.37,283.929,370.79,282.069,368.93z" />
				</g>
			</g>
			<g>
				<g>
					<path
						d="M235.667,366H64c-5.522,0-10,4.477-10,10s4.478,10,10,10h171.667c5.523,0,10-4.477,10-10S241.189,366,235.667,366z" />
				</g>
			</g>
			<g>
				<g>
					<path
						d="M210,254H64c-5.522,0-10,4.477-10,10s4.478,10,10,10h146c5.523,0,10-4.477,10-10S215.522,254,210,254z" />
				</g>
			</g>
		</svg>
		<svg id="previous-info" version="1.1" id="Capa_1" xmlns="http://www.w3.org/2000/svg"
			xmlns:xlink="http://www.w3.org/1999/xlink" x="0px" y="0px" viewBox="0 0 512 512"
			style="enable-background:new 0 0 512 512;" xml:space="preserve">
			<g>
				<g>
					<path d="M62.439,63.929c-5.523,0-10,4.478-10,10s4.477,10,10,10h0.094c5.523,0,9.953-4.478,9.953-10S67.962,63.929,62.439,63.929z
					" />
				</g>
			</g>
			<g>
				<g>
					<path d="M107.944,63.929c-5.523,0-10,4.478-10,10s4.477,10,10,10h0.094c5.523,0,9.953-4.478,9.953-10
					S113.467,63.929,107.944,63.929z" />
				</g>
			</g>
			<g>
				<g>
					<path d="M153.45,63.929c-5.523,0-10,4.478-10,10s4.477,10,10,10h0.093c5.523,0,9.954-4.478,9.954-10S158.973,63.929,153.45,63.929
					z" />
				</g>
			</g>
			<g>
				<g>
					<path d="M395.007,63.928H231.76c-5.523,0-10,4.478-10,10s4.477,10,10,10h163.247c5.523,0,10-4.478,10-10
					S400.53,63.928,395.007,63.928z" />
				</g>
			</g>
			<g>
				<g>
					<path
						d="M249.404,390.862c-1.85-1.859-4.43-2.93-7.07-2.93c-2.63,0-5.21,1.07-7.07,2.93s-2.93,4.44-2.93,7.07s1.07,5.21,2.93,7.07
					c1.86,1.859,4.44,2.93,7.07,2.93s5.21-1.07,7.07-2.93c1.87-1.86,2.93-4.44,2.93-7.07S251.274,392.722,249.404,390.862z" />
				</g>
			</g>
			<g>
				<g>
					<path d="M232.004,163.93H64.001c-5.523,0-10,4.478-10,10v168.003c0,5.522,4.477,10,10,10h168.003c5.523,0,10-4.477,10-10V173.93
					C242.004,168.408,237.527,163.93,232.004,163.93z M222.004,331.933H74.001V183.93h148.003V331.933z" />
				</g>
			</g>
			<g>
				<g>
					<path d="M498.03,170.991l-40.022-23.106V49.928c0-16.542-13.458-30-30-30H30.001C13.458,19.928,0,33.386,0,49.928v328.006
					c0,16.542,13.458,30.001,30.001,30.001h168.503c5.523,0,10-4.478,10-10s-4.477-10-10-10H30.001c-5.514,0-10-4.486-10-10V127.929
					h418.007v16.406c-0.603,0.12-1.205,0.253-1.805,0.414c-7.212,1.933-13.24,6.559-16.973,13.024l-31.268,54.157h-99.293
					c-5.523,0-10,4.478-10,10s4.477,10,10,10h87.746l-16.166,28.001h-71.579c-5.523,0-10,4.478-10,10s4.477,10,10,10h60.032
					l-16.166,28h-43.866c-5.523,0-10,4.478-10,10s4.477,10,10,10h32.319l-27.896,48.318c-0.704,1.219-1.143,2.573-1.287,3.974
					l-10.401,100.821c-0.404,3.922,1.533,7.716,4.947,9.687c1.552,0.896,3.278,1.34,4.999,1.34c2.064,0,4.122-0.638,5.863-1.898
					l82.112-59.419c1.141-0.825,2.094-1.883,2.798-3.102l11.385-19.719h34.5c16.542,0,30-13.458,30-30v-78.001
					c0-1.026-0.156-2.016-0.443-2.949l50.696-87.808C515.967,195.829,511.378,178.698,498.03,170.991z M20,107.929V49.928
					c0-5.514,4.486-10,10-10h398.007c5.514,0,10,4.486,10,10v58.001H20z M303.59,460.871l6.525-63.244l44.983,25.971L303.59,460.871z
					 M438.008,377.934c0,5.514-4.486,10-10,10h-22.953l32.954-57.076V377.934z M369.802,408.993l-54.39-31.403l95.09-164.699
					l54.39,31.402L369.802,408.993z M490.941,199.176l-16.048,27.797l-54.39-31.402l16.048-27.798c1.063-1.84,2.777-3.156,4.829-3.706
					c2.053-0.551,4.195-0.267,6.035,0.795l40.615,23.448C491.827,190.505,493.133,195.379,490.941,199.176z" />
				</g>
			</g>
			<g>
				<g>
					<path d="M207.575,222.86c-3.905-3.904-10.237-3.904-14.143,0l-48.929,48.93l-20.929-20.929c-3.905-3.904-10.237-3.904-14.143,0
					c-3.905,3.905-3.905,10.237,0,14.143l28.001,28c1.953,1.952,4.512,2.929,7.071,2.929c2.559,0,5.119-0.977,7.071-2.929
					l56.001-56.001C211.48,233.098,211.48,226.766,207.575,222.86z" />
				</g>
			</g>
			<g>
				<g>
					<path d="M370.707,163.93h-82.037c-5.523,0-10,4.478-10,10s4.477,10,10,10h82.037c5.523,0,10-4.478,10-10
					S376.23,163.93,370.707,163.93z" />
				</g>
			</g>
		</svg>
		<svg id="client" xmlns="http://www.w3.org/2000/svg" id="Layer_1" data-name="Layer 1" viewBox="0 0 512 512"
			width="512" height="512">
			<title>a1</title>
			<path
				d="M347.738,312.25c-.21-.105-.194-.2-.414-.277L318,301.307V290.643a6.285,6.285,0,0,0-3.936-5.591l-.128-.052h-.144L297,278.239V276.9a79.573,79.573,0,0,0,48.294-68.5,24.761,24.761,0,0,0,14.842-28.755,19.818,19.818,0,0,0-11.659-13.711l1.022-7.1c.021-.146.038-.292.049-.438a83.3,83.3,0,0,0-104.7-86.321c-6.008,1.613-11.331,4.2-16.479,6.709q-1.362.663-2.736,1.324a6,6,0,0,0-3.409,5.412,17.518,17.518,0,0,1-7.838,14.62l-20.875,13.875a5.989,5.989,0,0,0-1.845,1.933l-1.24,2.082a5.816,5.816,0,0,0-.323.622,83.583,83.583,0,0,0-7.022,39.744c.01.152.026.3.048.455l1.031,7.048a19.823,19.823,0,0,0-11.739,13.742,24.649,24.649,0,0,0,10.932,26.8,29.064,29.064,0,0,0,3.93,1.745C188.92,239.271,209,265.651,236,277.09v1.048l-17,6.883v.066s-.155.007-.167.013A6.12,6.12,0,0,0,215,290.643v10.664l-29.324,10.666a4.313,4.313,0,0,0-.53.277,45.508,45.508,0,0,0-24.933,36.543c-.014.165-.213.332-.213.5V411.77a6.646,6.646,0,0,0,6.5,6.23h200c3.313,0,5.5-2.917,5.5-6.23V349.291c0-.166.243-.333.229-.5A45.032,45.032,0,0,0,347.738,312.25Zm-81.27,14.944L248,308.585V281a78.392,78.392,0,0,0,18.284,2.179A77.611,77.611,0,0,0,285,280.9v27.616Zm-9.386,7.553-10.773,7.182-17.955-35.91Zm47.564-28.728-17.955,35.91-10.773-7.182Zm-3.889-13.255L297,296.521v-5.3ZM221.029,110.141a29.479,29.479,0,0,0,12.942-20.73,79.511,79.511,0,0,1,13.991-5.74,71.387,71.387,0,0,1,89.631,73.691l-1.431,10-.846,1.047a1.225,1.225,0,0,1-2.177-.764A28.676,28.676,0,0,0,304.49,139H260.657a6.351,6.351,0,0,1-6.339-6.345,19.307,19.307,0,0,0-19.052-19.245l-18.87-.188Zm-20.622,14.921,12.735.126a48.634,48.634,0,0,0-11.475,27.9,12.214,12.214,0,0,1-5.88,9.392l-.749-5.124A71.609,71.609,0,0,1,200.407,125.062ZM199,203.984v-.111a5.949,5.949,0,0,0-5.061-5.936c-1.114-.388-3.629-1.421-4.484-1.812a12.663,12.663,0,0,1-5.384-13.624,8.029,8.029,0,0,1,7.278-6.136,5.984,5.984,0,0,0,2.408-.759c10.363-1.371,18.849-10.282,19.861-21.436,1.06-11.695,6.234-20.65,16.674-28.812l4.855.048a7.271,7.271,0,0,1,7.171,7.249A18.365,18.365,0,0,0,260.657,151H304.49a16.663,16.663,0,0,1,16.649,16.643,13.226,13.226,0,0,0,22.595,9.332A7.78,7.78,0,0,1,348.5,182.5a12.685,12.685,0,0,1,.361,3.018,12.389,12.389,0,0,1-10.158,12.438,5.787,5.787,0,0,0-4.7,5.908v.117c0,37.052-30.448,67.2-67.495,67.2S199,241.036,199,203.984Zm37,92.6-3.874-3.874,3.874-1.6Zm-64,52.966c2-11.2,8.069-21.281,18.077-26.416L218.3,313l20.252,40.379a6.064,6.064,0,0,0,5.413,3.317,5.246,5.246,0,0,0,3.086-1.008L260,346.89V406H172ZM360,406H272V346.89l13.44,8.793a6.4,6.4,0,0,0,3.453,1.008,6.478,6.478,0,0,0,1.6-.2,6.06,6.06,0,0,0,3.858-3.116L314.559,313l27.856,10.14A32.94,32.94,0,0,1,360,349.551Z" />
			<path
				d="M280.254,388.958a7.5,7.5,0,1,0,7.5,7.5A7.51,7.51,0,0,0,280.254,388.958Zm0,12a4.5,4.5,0,1,1,4.5-4.5A4.5,4.5,0,0,1,280.254,400.958Z" />
			<path
				d="M280.254,358.181a7.5,7.5,0,1,0,7.5,7.5A7.509,7.509,0,0,0,280.254,358.181Zm0,12a4.5,4.5,0,1,1,4.5-4.5A4.5,4.5,0,0,1,280.254,370.181Z" />
			<path
				d="M497.25,243.5a35.72,35.72,0,0,0-35.875-35.75A35.249,35.249,0,0,0,426.01,238H364.5a6,6,0,0,0,0,12h61.51A35.091,35.091,0,0,0,455,278.99v47.217a26.031,26.031,0,0,0,6.375,51.293A25.973,25.973,0,0,0,467,326.207V278.99A35.374,35.374,0,0,0,497.25,243.5Zm-59.75,0a24,24,0,1,1,24,24A24.027,24.027,0,0,1,437.5,243.5Zm38,108a14,14,0,1,1-14-14A14.015,14.015,0,0,1,475.5,351.5Z" />
			<path
				d="M50.5,220.75A26.314,26.314,0,0,0,75.793,201H137.5a6,6,0,0,0,0-12H75.793a25.351,25.351,0,0,0-15.969-18.514l43.17-76.1a36.17,36.17,0,0,0,39.433-9.991l25.156,21.67a6,6,0,0,0,7.834-9.1L148.845,74.049A36,36,0,1,0,92.6,88.258L46.86,168.76a26.132,26.132,0,0,0,3.64,51.99Zm65-184.25a24,24,0,1,1-24,24A24.027,24.027,0,0,1,115.5,36.5ZM50.488,181h.017a14,14,0,1,1-.017,0Z" />
			<path
				d="M150.5,345H130.793a25.948,25.948,0,1,0-43.728,23.877L61.947,417.408a35.964,35.964,0,1,0,10.574,5.644l24.77-47.887a26.033,26.033,0,0,0,8.209,1.585A26.314,26.314,0,0,0,130.793,357H150.5a6,6,0,0,0,0-12ZM50.5,475.5a24,24,0,1,1,24-24A24.027,24.027,0,0,1,50.5,475.5Zm55-111a14,14,0,1,1,14-14A14.015,14.015,0,0,1,105.5,364.5Z" />
			<path
				d="M368.5,126.5a5.984,5.984,0,0,0,4.243-1.757L408.489,89a26.037,26.037,0,1,0-8.722-8.249l-35.51,35.51A6,6,0,0,0,368.5,126.5Zm53-74a14,14,0,1,1-14,14A14.015,14.015,0,0,1,421.5,52.5Z" />
		</svg>
		<svg id="documents" height="412pt" viewBox="0 -9 412 411" width="412pt" xmlns="http://www.w3.org/2000/svg">
			<path
				d="m0 361.253906c.0195312 18.035156 14.632812 32.648438 32.667969 32.667969h346.664062c18.035157-.019531 32.648438-14.632813 32.667969-32.667969v-146.664062c0-1.125-.316406-2.222656-.914062-3.175782l-39.085938-62.621093v-64.472657c-.019531-17.3125-14.050781-31.34375-31.367188-31.363281h-92.75c-7.226562.015625-13.855468-4.007812-17.179687-10.425781l-13.085937-25.144531c-5.378907-10.390625-16.113282-16.90625-27.816407-16.886719h-58.433593c-17.316407.019531-31.347657 14.050781-31.367188 31.363281v8.636719h-8.632812c-17.316407.019531-31.347657 14.050781-31.367188 31.363281v58.875c-8.183594 3.832031-15.0625 9.984375-19.777344 17.695313l-39.3125 62.976562h.003906c-.597656.953125-.914062 2.054688-.914062 3.179688zm400 0c-.011719 11.410156-9.257812 20.65625-20.667969 20.667969h-346.664062c-11.410157-.011719-20.65625-9.257813-20.667969-20.667969v-140.664062h104c9.570312.007812 17.324219 7.765625 17.332031 17.332031.019531 16.191406 13.140625 29.316406 29.335938 29.332031h86.664062c16.195313-.015625 29.316407-13.140625 29.335938-29.332031.007812-9.566406 7.761719-17.324219 17.332031-17.332031h104zm-4.816406-152.664062h-23.183594v-37.136719zm-283.183594-176.726563c.011719-10.6875 8.675781-19.351562 19.367188-19.363281h58.433593c7.226563-.015625 13.855469 4.007812 17.179688 10.425781l13.085937 25.144531c5.382813 10.394532 16.117188 16.910157 27.824219 16.886719h92.75c10.6875.015625 19.347656 8.675781 19.359375 19.363281v124.269532h-28v-84.269532c-.019531-17.3125-14.050781-31.34375-31.367188-31.363281h-92.75c-7.226562.015625-13.855468-4.007812-17.179687-10.425781l-13.085937-25.144531c-5.378907-10.390625-16.113282-16.90625-27.816407-16.886719h-37.800781zm-20.632812 20.636719h58.433593c7.226563-.015625 13.855469 4.007812 17.179688 10.425781l13.085937 25.144531c5.382813 10.394532 16.117188 16.910157 27.824219 16.886719h92.75c10.6875.015625 19.347656 8.675781 19.359375 19.363281v84.269532h-24c-16.191406.019531-29.3125 13.140625-29.332031 29.332031-.011719 9.570313-7.765625 17.324219-17.335938 17.332031h-86.664062c-9.570313-.007812-17.324219-7.761718-17.335938-17.332031-.019531-16.191406-13.140625-29.3125-29.332031-29.332031h-44v-136.726563c.011719-10.6875 8.675781-19.351562 19.367188-19.363281zm-40.929688 102.226562c2.453125-4.015624 5.707031-7.480468 9.5625-10.175781v64.039063h-43.183594zm0 0" />
			<path
				d="m272.667969 288.589844h-133.335938c-3.3125 0-6 2.683594-6 6v26.664062c0 3.316406 2.6875 6 6 6h133.335938c3.3125 0 6-2.683594 6-6v-26.664062c0-3.316406-2.6875-6-6-6zm-6 26.664062h-121.335938v-14.664062h121.335938zm0 0" />
			<path
				d="m246 157.609375h12.785156c3.3125 0 6-2.683594 6-6 0-3.3125-2.6875-6-6-6h-12.785156c-3.3125 0-6 2.6875-6 6 0 3.316406 2.6875 6 6 6zm0 0" />
			<path
				d="m133.214844 157.609375h83.367187c3.3125 0 6-2.683594 6-6 0-3.3125-2.6875-6-6-6h-83.367187c-3.3125 0-6 2.6875-6 6 0 3.316406 2.6875 6 6 6zm0 0" />
			<path
				d="m258.785156 175.609375h-86.75c-3.3125 0-6 2.6875-6 6 0 3.316406 2.6875 6 6 6h86.75c3.3125 0 6-2.683594 6-6 0-3.3125-2.6875-6-6-6zm0 0" />
			<path
				d="m133.214844 187.609375h13.367187c3.3125 0 6-2.683594 6-6 0-3.3125-2.6875-6-6-6h-13.367187c-3.3125 0-6 2.6875-6 6 0 3.316406 2.6875 6 6 6zm0 0" />
		</svg>
	</defs>
</svg>